<svg width="56" height="58" viewBox="0 0 56 58" fill="none" xmlns="http://www.w3.org/2000/svg">
<path d="M4.82184 44.0859C10.3342 49.6666 19.3409 49.6666 24.8533 44.0859L28.3477 40.5483L31.842 44.0859C37.3544 49.6666 46.3611 49.6666 51.8735 44.0859C57.3753 38.5053 57.3753 29.387 51.8735 23.8064C44.0245 15.8709 36.1861 7.93547 28.3477 0L4.82184 23.8064C-0.679912 29.387 -0.679912 38.516 4.82184 44.0859Z" fill="url(#paint0_linear_137_3634)"/>
<path d="M28.3476 11L10.2598 29.3118C7.75324 31.8494 7.75324 36.043 10.2598 38.5806C12.7664 41.1182 16.9087 41.1182 19.4259 38.5806L28.3476 29.5376L37.2694 38.5806C39.776 41.1182 43.9182 41.1182 46.4355 38.5806C48.942 36.043 48.942 31.8494 46.4355 29.3118C40.4026 23.2043 34.3698 17.1075 28.3476 11Z" fill="#021B8D"/>
<path d="M28.3478 47.8604L38.3529 58.0001H18.332L28.3478 47.8604Z" fill="url(#paint1_linear_137_3634)"/>
<path d="M32.7024 58.0001H18.332L25.8624 50.3657C21.9751 54.312 32.7024 58.0001 32.7024 58.0001Z" fill="#021B8D"/>
<path d="M28.3477 40.5483C15.2837 27.3333 43.6103 15.4516 28.3477 0L4.82184 23.8064C-0.679913 29.3763 -0.679913 38.5053 4.82184 44.0859C10.3342 49.6666 19.341 49.6666 24.8533 44.0859L28.3477 40.5483Z" fill="url(#paint2_linear_137_3634)"/>
<path d="M31.4818 16.4408C33.6487 11.3011 34.1904 5.91397 28.3482 0L25.459 2.92473C28.6988 5.6344 33.5106 10.7957 31.4818 16.4408Z" fill="#66E5FB"/>
<path d="M28.3479 40.5485C25.2359 37.398 24.4818 34.3227 24.9172 31.2582C15.9955 41.4087 0.138113 37.7528 4.32284 24.3442C-0.669094 29.9571 -0.499156 38.6775 4.83266 44.0754C10.345 49.656 19.3518 49.656 24.8641 44.0754L28.3479 40.5485Z" fill="#021B8D"/>
<path d="M28.3479 40.5483C19.766 28.0752 40.0524 21.8064 37.4821 9.24729C34.4338 6.16128 31.3962 3.08601 28.3479 0C43.6105 15.4516 15.2839 27.3333 28.3479 40.5483Z" fill="#02187A"/>
<path d="M28.3481 40.5483C15.2828 27.3333 43.6121 15.4516 28.3481 0C30.8868 2.56989 32.8944 6.97848 32.4589 11.1613C32.119 14.4193 30.5363 17.5591 29.0173 20.4086C27.0628 24.0537 24.386 28.4193 24.3223 32.6666C24.2798 35.7849 26.0112 38.3548 28.3481 40.5483Z" fill="#66E5FB"/>
<path d="M6.17094 51.3979L6.37276 52.3012L7.03134 52.5807L6.37276 52.8603L6.17094 53.7635L5.96912 52.8603L5.31055 52.5807L5.96912 52.3012L6.17094 51.3979Z" fill="url(#paint3_linear_137_3634)"/>
<path d="M1.95448 47.9893L2.41123 50.043L3.90895 50.6774L2.41123 51.3011L1.95448 53.3656L1.49772 51.3011L0 50.6774L1.49772 50.043L1.95448 47.9893Z" fill="url(#paint4_linear_137_3634)"/>
<path d="M52.2565 6.58105L53.0425 10.0757L55.5706 11.1402L53.0425 12.2155L52.2565 15.7101L51.4811 12.2155L48.9424 11.1402L51.4811 10.0757L52.2565 6.58105Z" fill="url(#paint5_linear_137_3634)"/>
<defs>
<linearGradient id="paint0_linear_137_3634" x1="28.344" y1="89.2514" x2="28.344" y2="-5.30842" gradientUnits="userSpaceOnUse">
<stop stop-color="#0049E7"/>
<stop offset="1" stop-color="#9027E2"/>
</linearGradient>
<linearGradient id="paint1_linear_137_3634" x1="28.3441" y1="89.2516" x2="28.3441" y2="30.7712" gradientUnits="userSpaceOnUse">
<stop stop-color="#0049E7"/>
<stop offset="1" stop-color="#9027E2"/>
</linearGradient>
<linearGradient id="paint2_linear_137_3634" x1="16.8448" y1="54.1848" x2="16.8448" y2="-2.15171" gradientUnits="userSpaceOnUse">
<stop stop-color="#0131B9"/>
<stop offset="1" stop-color="#66E5FB"/>
</linearGradient>
<linearGradient id="paint3_linear_137_3634" x1="6.1736" y1="54.0592" x2="6.1736" y2="51.2904" gradientUnits="userSpaceOnUse">
<stop stop-color="#0131B9"/>
<stop offset="1" stop-color="#66E5FB"/>
</linearGradient>
<linearGradient id="paint4_linear_137_3634" x1="1.95182" y1="54.0226" x2="1.95182" y2="47.7452" gradientUnits="userSpaceOnUse">
<stop stop-color="#0131B9"/>
<stop offset="1" stop-color="#66E5FB"/>
</linearGradient>
<linearGradient id="paint5_linear_137_3634" x1="52.2597" y1="16.8262" x2="52.2597" y2="6.17142" gradientUnits="userSpaceOnUse">
<stop stop-color="#0131B9"/>
<stop offset="1" stop-color="#66E5FB"/>
</linearGradient>
</defs>
</svg>
