<svg width="40" height="40" viewBox="0 0 40 40" fill="none" xmlns="http://www.w3.org/2000/svg">
<g clip-path="url(#clip0_137_4024)">
<path d="M25.3801 19.415C24.0936 21.1694 22.2222 22.339 20.117 22.339C18.0117 22.339 16.1404 21.1694 14.8538 19.415C12.1637 21.1694 10.4094 24.2104 10.4094 27.7191C10.4094 28.187 10.4094 28.6548 10.5263 29.1226C13.0994 31.3449 16.4912 32.7484 20.117 32.7484C23.7427 32.7484 27.1345 31.3449 29.7076 29.1226C29.8246 28.6548 29.8246 28.187 29.8246 27.7191C29.7076 24.2104 27.9532 21.1694 25.3801 19.415Z" fill="url(#paint0_linear_137_4024)"/>
<path d="M20 20.8187C23.041 20.8187 25.6141 17.7778 25.6141 14.0351C25.6141 10.2924 23.1579 7.25146 20 7.25146C16.9591 7.25146 14.386 10.2924 14.386 14.0351C14.5029 17.7778 16.9591 20.8187 20 20.8187Z" fill="url(#paint1_linear_137_4024)"/>
<path d="M38.5965 19.9998C38.5965 30.2922 30.2924 38.5963 20 38.5963C9.7076 38.5963 1.4035 30.2922 1.4035 19.9998C1.4035 9.70741 9.7076 1.40332 20 1.40332C30.2924 1.40332 38.5965 9.70741 38.5965 19.9998Z" stroke="#77D2E9" stroke-width="2.3984" stroke-miterlimit="10"/>
</g>
<defs>
<linearGradient id="paint0_linear_137_4024" x1="10.8624" y1="20.1095" x2="30.6872" y2="23.0694" gradientUnits="userSpaceOnUse">
<stop stop-color="#5FBFDF"/>
<stop offset="1" stop-color="#28939D"/>
</linearGradient>
<linearGradient id="paint1_linear_137_4024" x1="14.648" y1="7.95809" x2="26.2847" y2="8.94555" gradientUnits="userSpaceOnUse">
<stop stop-color="#5FBFDF"/>
<stop offset="1" stop-color="#28939D"/>
</linearGradient>
<clipPath id="clip0_137_4024">
<rect width="40" height="40" fill="white"/>
</clipPath>
</defs>
</svg>
