<svg width="40" height="40" viewBox="0 0 40 40" fill="none" xmlns="http://www.w3.org/2000/svg">
<path d="M34.0351 17.6604H21.4035C20.3509 14.6195 17.4269 12.2803 14.0351 12.2803C9.70761 12.2803 6.3158 15.789 6.3158 19.9996C6.3158 24.2101 9.82457 27.7189 14.0351 27.7189C17.8947 27.7189 21.1696 24.9119 21.6374 21.1692H25.9649V23.3914C25.9649 24.2101 26.6667 24.9119 27.4854 24.9119C28.3041 24.9119 29.0059 24.2101 29.0059 23.3914V21.1692H30.0585V25.4966C30.0585 26.3154 30.7602 27.0171 31.579 27.0171C32.3977 27.0171 33.0994 26.3154 33.0994 25.4966V21.1692H33.6842C34.6199 21.1692 35.4386 20.3504 35.4386 19.4148C35.7895 18.3621 35.0877 17.6604 34.0351 17.6604ZM13.3333 22.1048C13.3333 23.3914 12.2807 24.3271 11.1111 24.3271C9.82457 24.3271 8.8889 23.2744 8.8889 22.1048V17.7773C8.8889 16.4908 9.94153 15.5551 11.1111 15.5551C12.3977 15.5551 13.3333 16.6078 13.3333 17.7773V22.1048Z" fill="url(#paint0_linear_137_4021)"/>
<path d="M38.5965 19.9998C38.5965 30.2922 30.2924 38.5963 20 38.5963C9.7076 38.5963 1.4035 30.2922 1.4035 19.9998C1.4035 9.70741 9.7076 1.40332 20 1.40332C30.2924 1.40332 38.5965 9.70741 38.5965 19.9998Z" stroke="#77D2E9" stroke-width="2.3984" stroke-miterlimit="10"/>
<defs>
<linearGradient id="paint0_linear_137_4021" x1="6.99746" y1="13.0844" x2="36.3865" y2="18.7866" gradientUnits="userSpaceOnUse">
<stop stop-color="#5FBFDF"/>
<stop offset="1" stop-color="#28939D"/>
</linearGradient>
</defs>
</svg>
